<?xml version="1.0" encoding="utf-8"?>
<!-- Generator: Adobe Illustrator 24.3.0, SVG Export Plug-In . SVG Version: 6.00 Build 0)  -->
<svg version="1.1" id="Layer_1" xmlns="http://www.w3.org/2000/svg" xmlns:xlink="http://www.w3.org/1999/xlink" x="0px" y="0px"
	 viewBox="0 0 612 792" style="enable-background:new 0 0 612 792;" xml:space="preserve">
<path d="M386.13,148.31c76.69,31.28,276.36,224.54,117.41,260.81c-25.27,0.14-17.41,5.45-12.97,23.83
	c6.61,28.58,15.54,58.11,10.28,87.23c-7.94,44.17-101.45,50.98-139.59,51.59c-37.63,0.91-75.4,1.69-112.94-3.65
	c-19.64-3.64-40.82-4.25-58.4-14.71c-39.11-18.34-33.79-65.21-31.97-99.88c0.84-9.51-11.88-7.68-18.21-10.01
	c-7.23-1.79-14.53-3.41-21.57-5.79c-28.52-9.97-56.44-29.06-71.31-55.34c-11.41-24.85-4.25-52.1,1.31-77.02
	C83.66,199.87,275.59,97.38,386.13,148.31z M215.67,546.99c0.06-0.13,0.12-0.25,0.18-0.38c43.88,22.26,148.46,16.75,196.12,5.83
	c49.16-11.65,71.89-19.23,71.02-74.73c-6.06-61.53-37.49-118.04-68.58-171.61c-7.8-16-23.23-26.83-41.58-27.06
	c-23.96-3-48.09-1.44-71.92,0.39c-48.8,7.42-67.07,5.08-93.32,49.36c-22.65,37.89-33.54,82.39-37.63,126.27
	C164.82,496.01,173.17,528.81,215.67,546.99z M136.08,350.74c-0.16-0.09-0.31-0.18-0.47-0.27c10.24-17.23,29.53-27.73,45.85-39.28
	c53.74-34.86,119.91-48.91,184.96-47.68c30.18,1.69,60.31,6.36,89.37,15.33c12.43,3.11,24.15,10.7,36.93,11.16
	c15.59-4.94-7.61-34.27-13.62-41.51c-44.09-48.32-104.88-86.48-171.61-90.48c-43.24-1.23-84.62,14.87-121.62,34.3
	c-52,27.97-106.27,65.94-118.91,126.19c-4.74,27.19-8.44,61.68,18.05,80.58c19.81,16.34,45.4,21.94,69.74,27.9
	c11.08,2.9,9.61-12.53,12.43-19.09c3.24-13.11,7.33-25.89,11.4-38.73c4.43-10.86,9.01-21.65,13.86-32.32
	c0.87-4.31,17.27-28.37,8.79-28.4C176.9,317.33,155.6,334.65,136.08,350.74z M472.76,306.93c-7.88-2.36-47.51-23.69-41.92-4.05
	c4.92,8.49,11.05,16.38,15.58,25.13c10.21,17.49,19.56,35.59,26.39,54.53c2.85,10.69,12.32,13.72,21.97,9.47
	c14.16-3.69,29.11-11.1,34.83-24.96C535.76,341.04,493.74,316.35,472.76,306.93z"/>
</svg>
