<?xml version="1.0" encoding="utf-8"?>
<!-- Generator: Adobe Illustrator 24.3.0, SVG Export Plug-In . SVG Version: 6.00 Build 0)  -->
<svg version="1.1" id="Layer_1" xmlns="http://www.w3.org/2000/svg" xmlns:xlink="http://www.w3.org/1999/xlink" x="0px" y="0px"
	 viewBox="0 0 512 512" style="enable-background:new 0 0 512 512;" xml:space="preserve">
<style type="text/css">
	.st0{stroke:#000000;stroke-width:4;stroke-miterlimit:10;}
</style>
<path class="st0" d="M334.02,65.43c71.18,29.03,256.5,208.4,108.97,242.07c-23.45,0.13-16.16,5.06-12.03,22.11
	c6.13,26.52,14.42,53.94,9.54,80.96c-7.37,41-94.16,47.32-129.55,47.89c-34.92,0.84-69.98,1.57-104.83-3.39
	c-18.23-3.38-37.89-3.95-54.2-13.66c-36.3-17.02-31.36-60.52-29.67-92.7c0.78-8.82-11.03-7.13-16.9-9.29
	c-6.71-1.66-13.48-3.17-20.02-5.38c-26.47-9.25-52.39-26.97-66.18-51.37c-10.59-23.06-3.94-48.36,1.22-71.48
	C53.29,113.29,231.42,18.17,334.02,65.43z M175.8,435.46c0.06-0.12,0.11-0.23,0.17-0.35c40.72,20.66,137.79,15.54,182.02,5.41
	c45.62-10.81,66.73-17.84,65.92-69.36c-5.62-57.1-34.8-109.56-63.65-159.27c-7.24-14.85-21.56-24.9-38.59-25.12
	c-22.23-2.79-44.63-1.34-66.75,0.36c-45.3,6.88-62.25,4.72-86.61,45.81c-21.03,35.16-31.13,76.47-34.93,117.2
	C128.61,388.14,136.37,418.59,175.8,435.46z M101.94,253.32c-0.14-0.08-0.29-0.17-0.43-0.25c9.51-16,27.41-25.74,42.55-36.46
	c49.88-32.36,111.29-45.39,171.67-44.25c28.01,1.57,55.98,5.91,82.95,14.23c11.54,2.89,22.42,9.93,34.28,10.36
	c14.47-4.58-7.06-31.81-12.65-38.53c-40.92-44.85-97.35-80.26-159.28-83.97c-40.14-1.14-78.54,13.8-112.88,31.83
	C99.9,132.24,49.52,167.48,37.8,223.4c-4.4,25.24-7.84,57.25,16.75,74.79c18.38,15.17,42.14,20.36,64.73,25.9
	c10.29,2.69,8.92-11.63,11.54-17.72c3-12.17,6.81-24.03,10.58-35.95c4.11-10.08,8.36-20.09,12.86-30c0.81-4,16.03-26.33,8.16-26.36
	C139.83,222.31,120.05,238.38,101.94,253.32z M414.42,212.65c-7.32-2.19-44.1-21.99-38.91-3.76c4.56,7.88,10.26,15.21,14.46,23.33
	c9.48,16.23,18.16,33.04,24.49,50.62c2.65,9.93,11.43,12.74,20.39,8.79c13.15-3.42,27.02-10.3,32.32-23.16
	C472.89,244.31,433.9,221.4,414.42,212.65z"/>
</svg>
